<svg width="16" height="17" viewBox="0 0 16 17" fill="none" xmlns="http://www.w3.org/2000/svg">
<g id="Frame 153">
<path id="Vector" fill-rule="evenodd" clip-rule="evenodd" d="M0.0333951 12.9083C-0.0843941 12.3605 0.122595 11.8824 0.447372 11.6646C0.77215 11.4451 1.24216 11.469 1.44229 12.0134C2.11014 13.8169 3.01586 14.181 3.97762 14.181C5.16694 14.181 6.0475 13.3881 6.0475 12.0134C6.0475 10.9075 5.60722 10.329 4.41675 9.78286L3.60252 9.40685C1.87113 8.60208 1.00658 7.31412 1.00658 5.21119C1.00658 2.38856 2.59274 0.5 4.84216 0.5C6.75652 0.5 7.96529 1.60251 8.49591 3.26308C8.64801 3.73607 8.65373 4.28732 8.25576 4.76031C7.85779 5.2333 7.45068 5.02744 7.1179 4.5C6.24877 3.12016 5.70214 2.81901 4.85703 2.81901C3.58079 2.81901 2.90265 3.81604 2.90265 4.91174C2.90265 5.90876 3.37838 6.53148 4.50366 7.0453L5.34077 7.43152C7.11332 8.23628 7.96529 9.4715 7.96529 11.5319C7.96529 14.2558 6.5015 16.5 3.94788 16.5C2.12387 16.5 0.447372 14.836 0.0333951 12.91V12.9083ZM12.3967 10.8667C11.0381 10.2116 10.4709 9.30306 10.4709 7.81774C10.4709 5.91216 11.6133 4.51361 13.2704 4.51361C14.6907 4.51361 15.6147 5.51234 15.975 7.21714C16.0504 7.57614 15.9532 7.80413 15.7119 7.92152C15.4729 8.03722 15.2202 8.00659 15.1287 7.66121C14.7833 6.34602 14.1155 5.73352 13.2555 5.73352C12.1657 5.73352 11.4418 6.5655 11.4418 7.69524C11.4418 8.60549 11.8215 9.11421 12.8518 9.61442L13.5243 9.93598C14.9274 10.6114 15.4878 11.4758 15.4878 12.973C15.4878 14.9806 14.263 16.42 12.5602 16.42C11.0187 16.42 9.8888 15.1219 9.61891 13.514C9.55602 13.1448 9.60977 12.9917 9.93912 12.8777C10.2696 12.7637 10.3634 12.7705 10.4789 13.1755C10.8037 14.3222 11.6007 15.2001 12.606 15.2001C13.7038 15.2001 14.494 14.2695 14.494 13.0496C14.494 12.1529 14.1658 11.731 13.0691 11.1984L12.3967 10.8667Z" fill="black"/>
</g>
</svg>
