<svg width="21" height="24" viewBox="0 0 21 24" fill="none" xmlns="http://www.w3.org/2000/svg">
<g id="Frame 159">
<path id="Vector" fill-rule="evenodd" clip-rule="evenodd" d="M19.4989 16C19.7641 16 20.0184 16.1054 20.206 16.2929C20.3935 16.4804 20.4989 16.7348 20.4989 17V23C20.4988 23.2285 20.4204 23.4502 20.2768 23.6279C20.1332 23.8057 19.933 23.929 19.7096 23.9771C19.4862 24.0253 19.253 23.9955 19.0489 23.8927C18.8448 23.7898 18.6821 23.6202 18.5879 23.412C17.9815 23.783 17.2873 23.9857 16.5767 23.9993C15.866 24.0129 15.1646 23.8368 14.5445 23.4893C13.9245 23.1418 13.4082 22.6353 13.0489 22.022C12.6896 21.4087 12.5002 20.7108 12.5002 20C12.5002 19.2892 12.6896 18.5913 13.0489 17.978C13.4082 17.3647 13.9245 16.8582 14.5445 16.5107C15.1646 16.1632 15.866 15.9871 16.5767 16.0007C17.2873 16.0143 17.9815 16.217 18.5879 16.588C18.6671 16.4128 18.7952 16.2641 18.9567 16.1598C19.1183 16.0555 19.3065 16 19.4989 16ZM6.49885 8C7.23085 8 7.87985 8.473 8.10385 9.17L12.4509 22.694C12.5297 22.9458 12.5057 23.2186 12.3843 23.4529C12.2628 23.6871 12.0537 23.8639 11.8025 23.9447C11.5513 24.0254 11.2783 24.0036 11.0431 23.884C10.8079 23.7643 10.6295 23.5566 10.5469 23.306L9.16285 19H3.83485L2.45085 23.306C2.36816 23.5566 2.18978 23.7643 1.95458 23.884C1.71938 24.0036 1.44643 24.0254 1.19521 23.9447C0.943996 23.8639 0.734878 23.6871 0.613431 23.4529C0.491983 23.2186 0.468052 22.9458 0.546852 22.694L4.89385 9.17C5.00309 8.8302 5.21735 8.53383 5.50578 8.32357C5.79421 8.11332 6.14192 8.00002 6.49885 8ZM16.4989 18C15.9684 18 15.4597 18.2107 15.0846 18.5858C14.7096 18.9609 14.4989 19.4696 14.4989 20C14.4989 20.5304 14.7096 21.0391 15.0846 21.4142C15.4597 21.7893 15.9684 22 16.4989 22C17.0293 22 17.538 21.7893 17.9131 21.4142C18.2881 21.0391 18.4989 20.5304 18.4989 20C18.4989 19.4696 18.2881 18.9609 17.9131 18.5858C17.538 18.2107 17.0293 18 16.4989 18ZM6.49885 10.712L4.47785 17H8.51985L6.49885 10.712Z" fill="black"/>
</g>
</svg>
