<svg width="32" height="32" viewBox="0 0 32 32" fill="none" xmlns="http://www.w3.org/2000/svg">
<g id="Frame">
<path id="Vector" d="M26.6666 24.8889L27.2 25.6C27.4209 25.8945 27.3612 26.3124 27.0666 26.5333C26.9513 26.6199 26.8109 26.6667 26.6666 26.6667H5.33329C4.96511 26.6667 4.66663 26.3681 4.66663 26C4.66663 25.8557 4.71341 25.7153 4.79996 25.6L5.33329 24.8889V13.3333C5.33329 7.44228 10.1089 2.66666 16 2.66666C21.891 2.66666 26.6666 7.44228 26.6666 13.3333V24.8889ZM12.6666 28H19.3333C19.3333 29.8409 17.8409 31.3333 16 31.3333C14.159 31.3333 12.6666 29.8409 12.6666 28Z" fill="black"/>
</g>
</svg>
