<svg width="15" height="16" viewBox="0 0 15 16" fill="none" xmlns="http://www.w3.org/2000/svg">
<g id="Frame 175">
<path id="Vector" d="M6.31102 0.228882C9.01574 0.228882 11.0443 0.487699 12.3966 1.09161C13.8617 1.69551 14.5379 2.73078 14.5379 4.19741C14.5379 5.06013 14.1998 5.83659 13.749 6.44049C13.4935 6.73549 13.1616 6.98722 12.7739 7.18013C12.3862 7.37303 11.951 7.50302 11.4951 7.56203C12.1393 7.67723 12.7505 7.88192 13.2982 8.16594C13.749 8.42476 14.1998 8.85612 14.5379 9.28748C14.8906 9.91241 15.045 10.5924 14.9887 11.2717C15.0285 11.895 14.8758 12.5167 14.5429 13.0863C14.21 13.6559 13.7064 14.1574 13.0728 14.5501C11.4685 15.4272 9.51812 15.8538 7.55068 15.7579H0V0.228882H6.31102ZM6.7618 6.35422C8.00147 6.35422 8.90304 6.26795 9.35383 5.92286C9.91731 5.66404 10.1427 5.14641 10.1427 4.62877C10.1427 4.02487 9.80462 3.5935 9.24113 3.33469C8.67765 3.07587 7.77607 2.90333 6.53641 2.90333H4.28248V6.35422H6.7618ZM4.28248 8.94239V13.1697H7.09989C8.33956 13.1697 9.35383 12.9109 9.80462 12.5658C10.3681 12.1345 10.5935 11.7031 10.5935 11.0129C10.6069 10.7522 10.5429 10.4924 10.4063 10.2534C10.2696 10.0143 10.0639 9.802 9.80462 9.63257C9.24113 9.28748 8.33956 9.11494 6.9872 9.11494H4.16978L4.28248 8.94239Z" fill="black"/>
</g>
</svg>
