<svg width="35" height="35" viewBox="0 0 35 35" fill="none" xmlns="http://www.w3.org/2000/svg">
<path d="M33.883 0H10.0532C9.75694 0 9.47282 0.117686 9.26334 0.327168C9.05386 0.53665 8.93617 0.820769 8.93617 1.11702V8.93617H1.11702C0.820769 8.93617 0.53665 9.05386 0.327168 9.26334C0.117686 9.47282 0 9.75694 0 10.0532V33.883C0 34.1792 0.117686 34.4634 0.327168 34.6728C0.53665 34.8823 0.820769 35 1.11702 35H24.9468C25.2431 35 25.5272 34.8823 25.7367 34.6728C25.9461 34.4634 26.0638 34.1792 26.0638 33.883V26.0638H33.883C34.1792 26.0638 34.4634 25.9461 34.6728 25.7367C34.8823 25.5272 35 25.2431 35 24.9468V1.11702C35 0.820769 34.8823 0.53665 34.6728 0.327168C34.4634 0.117686 34.1792 0 33.883 0ZM23.8298 32.766H2.23404V11.1702H23.8298V32.766ZM32.766 23.8298H26.0638V10.0532C26.0638 9.75694 25.9461 9.47282 25.7367 9.26334C25.5272 9.05386 25.2431 8.93617 24.9468 8.93617H11.1702V2.23404H32.766V23.8298Z" fill="black"/>
</svg>
