<svg width="10" height="11" viewBox="0 0 10 11" fill="none" xmlns="http://www.w3.org/2000/svg">
<path d="M9.98545 5.38925C9.97079 5.34041 9.6182 4.17529 8.82896 2.99861C8.09791 1.90868 6.84056 0.609253 5 0.609253C3.15944 0.609253 1.90209 1.90868 1.17104 2.99861C0.3818 4.17529 0.0292063 5.34041 0.0145508 5.38925C0.00495272 5.42221 0 5.45775 0 5.49368C0 5.52961 0.00495272 5.56516 0.0145508 5.59811C0.0292063 5.64759 0.3818 6.81207 1.17104 7.98875C1.90381 9.08125 3.15988 10.3775 5 10.3775C6.84012 10.3775 8.09791 9.07868 8.82896 7.98875C9.6182 6.81207 9.97079 5.64759 9.98545 5.59811C9.99505 5.56516 10 5.52961 10 5.49368C10 5.45775 9.99505 5.42221 9.98545 5.38925ZM8.57594 7.63851C7.58152 9.1166 6.37761 9.86335 4.99828 9.86335C3.61894 9.86335 2.41676 9.11467 1.42061 7.63851C0.996765 7.0083 0.640309 6.28482 0.363696 5.49336C0.640824 4.70171 0.997868 3.97823 1.42234 3.34821C2.41848 1.87205 3.62066 1.12337 5 1.12337C6.37934 1.12337 7.58152 1.87205 8.57766 3.34821C9.00208 3.97829 9.35912 4.70177 9.6363 5.49336C9.35916 6.285 9.00212 7.00848 8.57766 7.63851H8.57594ZM5 2.66572C4.62489 2.66572 4.2582 2.83156 3.94631 3.14226C3.63442 3.45297 3.39133 3.89458 3.24778 4.41127C3.10423 4.92795 3.06667 5.4965 3.13985 6.045C3.21303 6.59351 3.39366 7.09735 3.65891 7.4928C3.92415 7.88826 4.26209 8.15756 4.62999 8.26667C4.9979 8.37577 5.37924 8.31978 5.72579 8.10576C6.07235 7.89174 6.36856 7.52931 6.57696 7.06431C6.78536 6.59931 6.89659 6.05261 6.89659 5.49336C6.89602 4.74368 6.69602 4.02496 6.34046 3.49485C5.98491 2.96475 5.50283 2.66657 5 2.66572ZM5 7.80688C4.69309 7.80688 4.39308 7.6712 4.13789 7.41698C3.88271 7.16277 3.68381 6.80145 3.56636 6.37871C3.44892 5.95597 3.41818 5.49079 3.47806 5.04201C3.53793 4.59323 3.68573 4.181 3.90274 3.85745C4.11976 3.5339 4.39626 3.31356 4.69727 3.22429C4.99828 3.13502 5.31029 3.18084 5.59383 3.35594C5.87738 3.53105 6.11973 3.82758 6.29024 4.20803C6.46075 4.58849 6.55176 5.03579 6.55176 5.49336C6.55176 6.10694 6.38827 6.6954 6.09726 7.12927C5.80625 7.56314 5.41155 7.80688 5 7.80688Z" fill="black"/>
</svg>
