<svg width="20" height="20" viewBox="0 0 20 20" fill="none" xmlns="http://www.w3.org/2000/svg">
<path d="M1.01483 14.9992C0.56636 14.2506 0.229748 13.4694 0 12.6734C1.00896 12.1773 1.69986 11.1664 1.69986 9.99999C1.69986 8.83448 1.00999 7.82415 0.00228242 7.32765C0.465763 5.71702 1.34591 4.21703 2.59733 2.99097C3.54766 3.58502 4.80166 3.65619 5.84993 3.07295C6.89821 2.48971 7.46125 1.40758 7.40256 0.31745C9.13013 -0.113918 10.9182 -0.0984802 12.5973 0.32003C12.5396 1.40929 13.1026 2.49017 14.1501 3.07295C15.1984 3.65617 16.4523 3.58502 17.4026 2.99103C18.003 3.58072 18.5367 4.25226 18.9852 5.00084C19.4336 5.7494 19.7703 6.53062 20 7.32652C18.991 7.82262 18.3001 8.83358 18.3001 9.99999C18.3001 11.1656 18.99 12.1758 19.9977 12.6723C19.5343 14.283 18.6541 15.7829 17.4027 17.009C16.4523 16.415 15.1984 16.3438 14.1501 16.927C13.1017 17.5102 12.5388 18.5925 12.5974 19.6826C10.8699 20.1139 9.08189 20.0985 7.40269 19.68C7.46036 18.5907 6.89738 17.5098 5.84993 16.927C4.80169 16.3438 3.54775 16.4149 2.59744 17.0089C1.99706 16.4192 1.46331 15.7477 1.01483 14.9992ZM6.88745 15.1953C8.01978 15.8253 8.83298 16.8213 9.22247 17.9644C9.73946 18.0117 10.2599 18.0124 10.777 17.966C11.1663 16.8223 11.9797 15.8256 13.1125 15.1953C14.2454 14.5649 15.5479 14.3846 16.7703 14.6314C17.0706 14.2231 17.3302 13.7884 17.5461 13.3332C16.7137 12.4367 16.2251 11.26 16.2251 9.99999C16.2251 8.74 16.7137 7.5634 17.5461 6.66685C17.4381 6.44089 17.3187 6.21864 17.1881 6.00067C17.0575 5.78269 16.9174 5.57201 16.7683 5.36898C15.5466 5.61528 14.2449 5.43469 13.1125 4.80471C11.9802 4.17471 11.1671 3.17861 10.7775 2.03567C10.2606 1.98827 9.74009 1.98759 9.22309 2.03404C8.83371 3.17764 8.0203 4.1744 6.88745 4.80471C5.75456 5.43502 4.45212 5.61546 3.22974 5.36859C2.92945 5.77691 2.66985 6.21159 2.45397 6.66672C3.28632 7.56331 3.7749 8.74 3.7749 9.99999C3.7749 11.26 3.28634 12.4366 2.45397 13.3331C2.56199 13.5591 2.68127 13.7814 2.81187 13.9993C2.94246 14.2173 3.08254 14.4279 3.23165 14.631C4.45348 14.3848 5.75517 14.5653 6.88745 15.1953ZM9.99998 12.9995C8.28102 12.9995 6.88745 11.6566 6.88745 9.99999C6.88745 8.34347 8.28102 7.0005 9.99998 7.0005C11.719 7.0005 13.1125 8.34347 13.1125 9.99999C13.1125 11.6566 11.719 12.9995 9.99998 12.9995ZM9.99998 10.9998C10.573 10.9998 11.0375 10.5522 11.0375 9.99999C11.0375 9.44778 10.573 9.00016 9.99998 9.00016C9.42696 9.00016 8.96247 9.44778 8.96247 9.99999C8.96247 10.5522 9.42696 10.9998 9.99998 10.9998Z" fill="black"/>
</svg>
