<svg width="18" height="21" viewBox="0 0 18 21" fill="none" xmlns="http://www.w3.org/2000/svg">
<g id="Frame 168">
<path id="Vector" d="M17.2069 4.3261L13.6719 0.793099C13.4855 0.606414 13.2329 0.501011 12.9691 0.499887C12.7053 0.498763 12.4518 0.602009 12.2639 0.787099L3.59588 9.3201C3.46077 9.45383 3.36614 9.62298 3.32288 9.8081L2.29888 14.2451L0.499878 16.5001H3.32788L4.46988 15.3711L8.05788 14.5431C8.23788 14.5011 8.40288 14.4101 8.53488 14.2811L17.2019 5.7461C17.2959 5.65347 17.3707 5.54313 17.4219 5.42145C17.4731 5.29977 17.4997 5.16915 17.5002 5.03714C17.5006 4.90513 17.475 4.77433 17.4246 4.65229C17.3743 4.53026 17.3003 4.41939 17.2069 4.3261ZM7.83788 12.1591L5.71688 10.0391L12.9599 2.9081L15.0799 5.0281L7.83788 12.1591ZM0.499878 18.5001H16.4999V20.5001H0.499878V18.5001Z" fill="black"/>
</g>
</svg>
