<svg width="17" height="17" viewBox="0 0 17 17" fill="none" xmlns="http://www.w3.org/2000/svg">
<g id="Frame 150">
<path id="Vector" d="M5.83333 1.64286C5.83333 1.01071 6.42917 0.5 7.16667 0.5H15.1667C15.9042 0.5 16.5 1.01071 16.5 1.64286C16.5 2.275 15.9042 2.78571 15.1667 2.78571H12.7208L7.16667 14.2143H9.83333C10.5708 14.2143 11.1667 14.725 11.1667 15.3571C11.1667 15.9893 10.5708 16.5 9.83333 16.5H1.83333C1.09583 16.5 0.5 15.9893 0.5 15.3571C0.5 14.725 1.09583 14.2143 1.83333 14.2143H4.27917L9.83333 2.78571H7.16667C6.42917 2.78571 5.83333 2.275 5.83333 1.64286Z" fill="black"/>
</g>
</svg>
