<svg width="20" height="22" viewBox="0 0 20 22" fill="none" xmlns="http://www.w3.org/2000/svg">
<g id="Frame 171">
<g id="Group">
<path id="Vector" d="M10.5 1.5V5.5C10.5 5.76522 10.6054 6.01957 10.7929 6.20711C10.9804 6.39464 11.2348 6.5 11.5 6.5H15.5" stroke="black" stroke-width="2" stroke-linecap="round" stroke-linejoin="round"/>
<path id="Vector_2" d="M6.5 19.5H3.5C2.96957 19.5 2.46086 19.2893 2.08579 18.9142C1.71071 18.5391 1.5 18.0304 1.5 17.5V3.5C1.5 2.96957 1.71071 2.46086 2.08579 2.08579C2.46086 1.71071 2.96957 1.5 3.5 1.5H10.5L15.5 6.5V8.5M9.5 18.5H14.5C15.0304 18.5 15.5391 18.2893 15.9142 17.9142C16.2893 17.5391 16.5 17.0304 16.5 16.5V11.5" stroke="black" stroke-width="2" stroke-linecap="round" stroke-linejoin="round"/>
<path id="Vector_3" d="M11.5 20.5L9.5 18.5L11.5 16.5M14.5 13.5L16.5 11.5L18.5 13.5" stroke="black" stroke-width="2" stroke-linecap="round" stroke-linejoin="round"/>
</g>
</g>
</svg>
