<svg width="18" height="24" viewBox="0 0 18 24" fill="none" xmlns="http://www.w3.org/2000/svg">
<path d="M13 12.0001L15.004 14.9393C15.284 15.3499 15.4247 15.8552 15.4017 16.3679C15.3787 16.8805 15.1934 17.3682 14.878 17.7465L11.094 22.2862C10.9069 22.511 10.6793 22.6906 10.4258 22.8135C10.1722 22.9364 9.89812 22.9999 9.62101 23.0001H5.00001C2.64201 23.0001 1.37801 20.1676 1.01801 18.6771C1.00576 18.6257 0.999712 18.5728 1.00001 18.5198V9.17306C1.00001 6.65846 4.00001 6.65846 4.00001 9.17306V9.80006" stroke="black" stroke-width="1.5" stroke-linecap="round" stroke-linejoin="round"/>
<path d="M1.5 9.8V7.9146C1.5 5.4 4.5 5.4 4.5 7.9146V9.8V7.05C4.5 4.5354 7.5 4.5354 7.5 7.05V9.8V2.6489C7.50027 2.21148 7.65842 1.79208 7.93969 1.48288C8.22097 1.17369 8.60235 1 9 1C9.39782 1 9.77935 1.17384 10.0607 1.48327C10.342 1.79271 10.5 2.21239 10.5 2.65V15.3" stroke="black" stroke-width="1.5" stroke-linecap="round" stroke-linejoin="round"/>
<path d="M13.063 5.94995H15.125C16 5.94995 16.5 5.48575 16.5 4.57495C16.5 3.66415 16 3.19995 15.125 3.19995H7.75C7.06 3.19995 6.5 3.81595 6.5 4.57495V4.84995C6.5 5.14169 6.60536 5.42148 6.79289 5.62777C6.98043 5.83406 7.23478 5.94995 7.5 5.94995" stroke="black" stroke-width="1.5"/>
</svg>
